<svg width="402" height="54" viewBox="0 0 402 54" fill="none" xmlns="http://www.w3.org/2000/svg">
<path d="M36.7109 1.96663V52H58.1538C76.0944 52 84.3142 40.4209 84.3142 26.626C84.3142 12.831 75.8085 1.96663 58.1538 1.96663H36.7109ZM50.7203 13.7602H58.1538C66.8025 13.7602 70.3048 19.6213 70.3048 26.483C70.3048 33.3447 67.1598 40.0635 58.1538 40.0635H50.7203V13.7602Z" fill="white"/>
<path d="M144.675 26.9833C144.675 10.3294 133.31 0.75154 116.87 0.75154C100.502 0.75154 89.0662 10.5438 89.0662 26.9833C89.0662 43.7088 100.502 53.2151 116.87 53.2151C133.31 53.2151 144.675 43.7088 144.675 26.9833ZM130.522 26.9833C130.522 35.2746 125.162 41.1357 116.87 41.1357C108.865 41.1357 103.219 35.3461 103.219 26.9833C103.219 18.6921 108.794 12.831 116.87 12.831C125.162 12.831 130.522 18.4062 130.522 26.9833Z" fill="white"/>
<path d="M196.266 8.61393C189.69 1.96663 183.543 0.537109 176.61 0.537109C157.812 0.537109 149.235 13.9747 149.235 27.0548C149.235 40.135 156.74 53.3581 176.539 53.3581C186.188 53.3581 194.908 49.9272 198.053 43.5658V21.3367H173.608V32.4155H186.259V38.8484C183.4 40.9212 179.255 41.4216 176.61 41.4216C166.532 41.4216 163.173 33.4877 163.173 27.0548C163.173 17.2626 168.462 12.4022 176.61 12.4022C179.97 12.4022 184.401 13.3314 188.046 16.7622L196.266 8.61393Z" fill="white"/>
<path d="M247.862 52H261.871V1.96663H247.147L233.996 18.9065L220.844 1.96663H206.048V52H220.058V22.2659L232.566 37.3474H235.068L247.862 22.1944V52Z" fill="white"/>
<path d="M309.821 52H324.974L302.602 1.96663H288.307L265.863 52H280.873L284.161 43.7803H306.533L309.821 52ZM301.745 31.9152H288.95L295.383 15.976L301.745 31.9152Z" fill="white"/>
<path d="M366.136 2.03811H328.11V30.5572H347.909C350.482 30.5572 355.057 31.129 354.985 35.9894C354.985 40.4209 350.125 41.2786 348.052 41.2786C344.907 41.2786 341.048 39.6346 341.048 35.4175H327.253C327.324 48.0689 336.259 52.6433 348.195 52.6433C357.63 52.6433 368.78 48.2833 368.78 35.9894C368.852 22.4803 358.917 19.4783 347.909 19.4783H341.19V13.5458H366.136V2.03811Z" fill="white"/>
<path d="M368.316 51.9943H368.962V48.5763H370.272V48C369.122 48 368.15 48 367 48V48.5763H368.316V51.9943Z" fill="white"/>
<path d="M374.359 52H375V48.0057H374.256L372.941 49.8773L371.619 48.0057C371.362 48.0057 371.127 48.0057 370.875 48.0057V52H371.516V48.9358L372.86 50.8245H372.998L374.359 48.9358V52Z" fill="white"/>
<path d="M391.88 24.12H397.24L401.48 14H394.68L391.88 24.12ZM384 24.12H389.4L392.88 14H385.96L384 24.12Z" fill="white"/>
<path d="M9.6 14H4.24L0 24.12H6.8L9.6 14ZM17.48 14H12.08L8.6 24.12H15.52L17.48 14Z" fill="white"/>
</svg>
