<svg width="225" height="48" viewBox="0 0 225 48" fill="none" xmlns="http://www.w3.org/2000/svg">
<path d="M106 6.4H110.2V11.2H111.6V1.6H110.2V4.8H106V1.6H104.6V11.1H106V6.4ZM110.2 0H106V1.6H110.2V0ZM221.7 38V34.8H218.9V31.6H216.1V28.4H213.3V25.2H210.5V22H207.7V18.8H204.9V15.6H202.1V41H207.8V31.6H210.6V34.8H213.4V38H216.2V41.2H224.5V38H221.7ZM114.5 1.6H113V9.5H114.4V1.6H114.5ZM120.1 4.8H117.3V6.4H118.7V9.6H120.1V4.8V4.8ZM118.7 11.1V9.5H114.5V11.1H118.7ZM94.7 9.5V1.6H93.3V9.5H94.7ZM89 1.6H87.6V9.5H89V1.6ZM93.3 0H89V1.6H93.2V0H93.3ZM80.5 0H79.1V7.9H80.5V0ZM176.9 22.2H193.6V25.4H176.8V41.1H182.5V31.7H185.3V35H188.1V38.2H190.9V41.4H193.7V44.6H196.5V47.8H199.3V38.4H196.5V35.2H193.7V32H199.4V16.2H176.9V22.2ZM120.1 3.2V1.6H118.7V3.2H120.1ZM89 11.1H93.2V9.5H89V11.1ZM128.6 9.5H122.9V6.4H127.1V4.8H122.9V1.6H128.6V0H121.5V11.1H128.6V9.5ZM173.8 6.4H178V11.2H179.4V0H178V4.8H173.8V0H172.4V11.1H173.8V6.4ZM187.9 9.5H182.2V6.4H186.4V4.8H182.2V1.6H187.9V0H180.8V11.1H187.9V9.5ZM166.7 11.1H168.1V1.6H170.9V0H163.8V1.6H166.6V11.1H166.7ZM220.4 16.7L221.1 20.5H221.9L222.6 16.7V20.5H223.6V15.9H222.3L221.6 19.6L220.9 15.9H219.6V20.5H220.3V16.7H220.4ZM217.2 20.5H217.9V16.7H219.2V15.9H216V16.7H217.3V20.5H217.2ZM126.2 22.2H134.7V41.1H140.4V22.2H148.7V15.8H126.2V22.2V22.2ZM148.4 6.4H152.6V4.8H148.4V1.6H154.1V0H147V11.1H148.4V6.4ZM86.2 0H84.8V7.9H86.2V0ZM139.9 1.6H138.5V9.5H139.9V1.6ZM145.5 9.5V1.6H144.1V9.5H145.5ZM144.1 0H139.9V1.6H144.1V0ZM139.9 11.1H144.1V9.5H139.9V11.1ZM118.7 0H114.5V1.6H118.7V0ZM64.7 19.1H61.7V22.3H58.9V25.5H56.1V16.1H50.4V41.4H53.2V38.2H56V35H58.8V31.8H61.6V28.6H64.4V25.4H67.2V22.2H70V19H72.8V15.8H64.5V19.1H64.7ZM75.9 41.2H98.2V34.8H75.9V41.2ZM75.9 31.6H98.2V25.2H75.9V31.6ZM19.6 19.1H17V22.3H14.2V25.5H11.4V28.7H8.5V31.9H5.7V35H2.8V38.2H0V41.4H8.3V38.2H11.1V35H14V31.8H16.8V41.2H22.5V15.9H19.7V19.1H19.6ZM39.4 19.1H36.4V22.3H33.6V25.5H30.8V16.1H25.1V41.4H28V38.2H30.8V35H33.6V31.8H36.4V28.6H39.2V25.4H42V22.2H44.8V19H47.6V15.8H39.3V19.1H39.4ZM75.9 22.2H98.2V15.8H75.9V22.2ZM84.8 7.9H83.4V9.5H84.8V7.9ZM101.7 4.8H100.3V6.4H101.7V4.8ZM117.8 28.4H115V25.2H112.2V22H109.4V18.8H106.6V15.6H103.8V12.4H101V40.7H106.7V28.3H109.5V31.5H112.3V34.7H115.1V37.9H117.9V41H120.7V44.2H123.5V15.9H117.8V28.4ZM103.2 0H101.8V4.8H103.2V0ZM43.8 9.5H38.1V0H36.7V11.1H43.8V9.5ZM97.5 4.8V6.4H98.9V4.8H97.5ZM96.1 0V4.8H97.5V0H96.1ZM98.9 11.1H100.3V6.4H98.9V11.1ZM59.3 0H55.1V1.6H59.3V0ZM55.1 7.9H53.7V9.5H55.1V7.9ZM53.7 1.6V4.8H55.1V1.6H53.7ZM46.6 6.4H50.8V11.2H52.2V1.6H50.8V4.8H46.6V1.6H45.2V11.1H46.6V6.4ZM83.4 11.1V9.5H82V11.1H83.4ZM82 9.5V7.9H80.6V9.5H82ZM65 11.1H66.4V1.6H69.2V0H62.1V1.6H65V11.1ZM59.3 11.1V9.5H55.1V11.1H59.3ZM60.8 3.2V1.6H59.4V3.2H60.8ZM168.3 34.8H157.1V15.9H151.4V41.2H173.9V15.9H168.2V34.8H168.3ZM50.9 0H46.7V1.6H50.9V0ZM60.8 6.4H59.4V9.6H60.8V6.4ZM55.1 4.8V6.4H59.3V4.8H55.1Z" fill="#FF0000"/>
</svg>
